<svg width="17" height="17" viewBox="0 0 17 17" fill="none" xmlns="http://www.w3.org/2000/svg">
<rect width="17" height="17" rx="5" fill="#FCF4F4"/>
<path d="M5.37891 9.57764H7.46826V8.20801H5.37891V6.01123H3.97705V8.20801H1.89307V9.57764H3.97705V11.769H5.37891V9.57764ZM8.69824 6.60742H10.2021C10.2021 5.86084 10.7876 5.33984 11.561 5.33984C12.2593 5.33984 12.7373 5.8125 12.7373 6.43555C12.7373 6.97266 12.5171 7.34326 11.5342 8.28857L8.78955 10.8882V12H14.4238V10.7109H10.9111V10.6787L12.5386 9.12109C13.8491 7.86963 14.3164 7.28418 14.3164 6.3335C14.3164 5.04443 13.2207 4.07764 11.561 4.07764C9.87988 4.07764 8.69824 5.11426 8.69824 6.60742Z" fill="black"/>
</svg>
